<?xml version="1.0" standalone="no"?>
<!DOCTYPE svg PUBLIC "-//W3C//DTD SVG 20010904//EN"
 "http://www.w3.org/TR/2001/REC-SVG-20010904/DTD/svg10.dtd">
<svg version="1.0" xmlns="http://www.w3.org/2000/svg"
 width="511.000000pt" height="511.000000pt" viewBox="0 0 511.000000 511.000000"
 preserveAspectRatio="xMidYMid meet">
<metadata>
Created by potrace 1.14, written by Peter Selinger 2001-2017
</metadata>
<g transform="translate(0.000000,511.000000) scale(0.100000,-0.100000)"
fill="#000000" stroke="none">
<path d="M2409 4876 c-2 -2 -44 -6 -94 -10 -106 -7 -116 -9 -260 -41 -166 -37
-395 -117 -510 -180 -22 -12 -71 -39 -110 -60 -94 -51 -163 -96 -271 -181
-117 -92 -141 -113 -233 -208 -93 -95 -87 -90 -136 -151 -22 -27 -44 -55 -50
-62 -5 -7 -15 -18 -20 -25 -20 -25 -122 -183 -156 -243 -88 -153 -172 -368
-219 -556 -30 -126 -28 -112 -54 -304 -13 -98 -16 -461 -3 -481 3 -5 8 -37 12
-69 22 -215 107 -490 222 -719 41 -83 119 -212 145 -242 10 -11 18 -24 18 -27
0 -4 23 -37 51 -74 29 -36 59 -75 68 -87 37 -48 267 -276 279 -276 6 0 12 -4
12 -9 0 -5 46 -42 103 -82 90 -66 129 -91 202 -137 11 -7 83 -43 160 -81 185
-91 442 -175 604 -197 24 -3 82 -12 130 -19 98 -15 399 -17 481 -4 30 5 78 11
105 14 190 22 499 118 680 213 28 14 57 29 65 33 8 4 51 29 95 55 177 106 328
227 475 382 100 104 107 112 155 177 16 22 32 42 35 45 10 10 110 161 110 166
0 3 8 18 19 32 29 42 151 289 151 307 0 2 5 16 12 32 6 15 12 30 13 33 0 3 11
37 24 75 37 111 71 258 86 375 3 19 8 60 12 90 15 111 8 449 -11 547 -3 11 -8
43 -11 70 -19 131 -98 396 -154 516 -17 37 -31 68 -31 70 0 2 -25 49 -55 105
-273 503 -717 880 -1255 1067 -139 48 -302 89 -400 101 -30 3 -66 8 -80 11
-30 6 -405 14 -411 9z m976 -1036 c33 -13 67 -29 76 -37 8 -7 20 -13 26 -13
21 0 121 -110 175 -193 341 -515 555 -1157 506 -1519 -17 -119 -81 -259 -134
-291 -7 -4 -19 -13 -26 -20 -20 -18 -107 -56 -156 -66 -23 -5 -82 -8 -130 -6
-163 6 -251 56 -463 263 -79 77 -156 151 -170 164 -63 57 -89 78 -97 78 -4 0
-12 8 -18 18 -19 29 -153 91 -229 105 -69 13 -244 14 -337 3 -52 -7 -178 -54
-178 -68 0 -4 -5 -8 -10 -8 -25 0 -110 -74 -299 -259 -173 -169 -245 -221
-366 -261 -63 -21 -189 -30 -245 -17 -79 17 -172 68 -226 121 -40 41 -89 164
-99 251 -6 57 -7 212 0 268 16 141 116 491 181 633 13 29 24 55 24 58 0 3 19
45 41 93 23 49 45 97 50 108 31 70 110 201 228 379 92 139 195 210 341 235 25
5 367 8 760 7 l715 -2 60 -24z"/>
<path d="M1917 3472 c-32 -7 -66 -29 -88 -56 -20 -26 -27 -59 -28 -143 l-1
-33 -59 0 c-74 0 -104 -11 -142 -52 -23 -26 -29 -42 -29 -77 0 -90 64 -141
178 -141 l57 0 0 -71 c-1 -68 1 -73 36 -113 35 -39 40 -41 91 -41 96 1 138 52
138 166 l0 59 55 0 c110 0 175 52 175 140 0 84 -59 130 -165 130 l-65 0 0 60
c0 33 0 62 0 65 1 16 -34 67 -54 80 -30 20 -76 32 -99 27z"/>
<path d="M3151 3459 c-53 -32 -71 -80 -57 -154 8 -43 45 -78 103 -94 38 -11
100 14 131 54 27 34 30 114 6 150 -39 59 -124 80 -183 44z"/>
<path d="M2931 3232 c-13 -4 -37 -24 -53 -43 -53 -66 -33 -161 44 -200 44 -23
67 -24 112 -5 92 39 109 170 29 230 -28 20 -94 29 -132 18z"/>
<path d="M3391 3223 c-43 -22 -76 -90 -67 -139 23 -117 178 -151 243 -52 36
53 29 126 -15 170 -38 39 -109 48 -161 21z"/>
<path d="M3162 2993 c-74 -30 -99 -147 -44 -210 85 -96 232 -38 232 91 0 43
-4 53 -39 87 -35 35 -44 39 -87 38 -27 0 -55 -3 -62 -6z"/>
</g>
</svg>
